<svg xmlns="http://www.w3.org/2000/svg" version="1.1" xmlns:xlink="http://www.w3.org/1999/xlink" xmlns:svgjs="http://svgjs.dev/svgjs" width="100%" height="100%" viewBox="0 0 1000 600"><rect width="1000" height="600" x="0" y="0" fill="#96351e"/><g><circle r="166.66666666666666" cx="450.9455362955729" cy="473.16793286037364" fill="#0573ef" transform="matrix(0.43970880892405173,0,0,0.4397088089240518,0,91.94388380289159)"/><path d="M329.43575577074597 485.45147559240775L329.43575577074597 546.2198711847537L308.98121121695544 546.2198711847537L308.98121121695544 420.5705260686119L305.5721204579903 401.09000744595426Q308.494198251389 400.6029944803878 312.74203356216293 400.22420661828056Q316.9628125970721 399.81836248030856 321.7517734251421 399.5207434457957Q326.5136779773473 399.2501806871477 331.2755825295525 399.08784303195887Q336.0645433576225 398.95256165263487 339.85242197869485 398.95256165263487L339.85242197869485 398.95256165263487Q351.053720186723 398.95256165263487 361.33510501534784 400.9547260666302Q371.6164898439727 402.9298342047608 379.48986612063015 407.6105699293716Q387.3902986731525 412.29130565398236 392.07103439776324 419.89411917199186Q396.75177012237407 427.49693269000124 396.75177012237407 438.6982308980294L396.75177012237407 438.6982308980294Q396.75177012237407 452.3345939338898 391.88164046670965 461.3443337968689Q387.01151081104524 470.3540736598481 378.13705232739005 475.7112162810789Q369.2625938437349 481.0683589023098 356.8437632217907 483.25991724735877Q344.42493259984644 485.45147559240775 329.43575577074597 485.45147559240775L329.43575577074597 485.45147559240775ZM327.48770390848017 413.86056965414093L329.43575577074597 434.50450813898505L329.43575577074597 471.7068874530882Q341.12406694434054 471.7068874530882 350.1879193590493 470.3540736598481Q359.2517717737581 468.9742035907432 365.4747152226626 465.4298314524541Q371.6976586715671 461.8584030383002 374.9173554994786 455.6354595893957Q378.13705232739005 449.4125161404911 378.13705232739005 439.5640317257031L378.13705232739005 439.5640317257031Q378.13705232739005 432.2588372422065 375.07969315466744 427.0910885520292Q371.99527770607995 421.923339861852 367.12514805041553 418.6224742063461Q362.2550183947511 415.3216085508402 356.2214688769002 413.8064571024113Q350.1879193590493 412.29130565398236 344.2355386687928 412.29130565398236L344.2355386687928 412.29130565398236Q342.5851058410399 412.29130565398236 340.28532239253167 412.4265870333064Q338.0125952198883 412.58892468849524 335.6586992196505 412.7783186195488Q333.33185949527746 412.9677125506024 331.1403011502285 413.2653315851153Q328.9487428051795 413.56295061962805 327.48770390848017 413.86056965414093L327.48770390848017 413.86056965414093ZM501.0537135811869 398.1679296525556L532.5201624119519 497.5185746281096L541.0970018610942 532.5835081488933L545.777737585705 502.00991642166673L577.9205933130902 400.1159815148213L596.3188609011557 400.1159815148213L555.5179968970339 528.6874044243618L552.9747069657425 548.1679230470195L529.0028465495277 546.2198711847537L482.0602079240957 400.1159815148213L501.0537135811869 398.1679296525556Z " fill="#96351e" transform="matrix(0.43970880892405173,0,0,0.4397088089240518,0,91.94388380289159)"/><path d="M718.4455033245163 469.31872464584893L718.4455033245163 513.882217608792L703.4455030217625 513.882217608792L703.4455030217625 421.7393586061618L700.9455029713035 407.45364403211056Q703.0883601574112 407.0965011677593 706.2034395853641 406.81872338437495Q709.2986777430751 406.5211043307489 712.8105825758628 406.3028503580898Q716.3026461384086 406.1044376556724 719.7947097009544 405.98539003422195Q723.306614533742 405.8861836830133 726.0843923675853 405.8861836830133L726.0843923675853 405.8861836830133Q734.2986782476647 405.8861836830133 741.838360939525 407.35443768090187Q749.3780436313855 408.80285040854875 755.1518532717312 412.2353901603694Q760.9455041823186 415.66792991219 764.3780439341392 421.2433268501183Q767.8105836859598 426.8187237880466 767.8105836859598 435.03300966812606L767.8105836859598 435.03300966812606Q767.8105836859598 445.0330098699619 764.239155042447 451.6401528604606Q760.6677263989343 458.2472958509593 754.1597897596442 462.1758673588233Q747.6518531203543 466.1044388666874 738.5447100793966 467.7115817562682Q729.437567038439 469.31872464584893 718.4455033245163 469.31872464584893L718.4455033245163 469.31872464584893ZM717.0169318671112 416.8187235862108L718.4455033245163 431.95761278065675L718.4455033245163 459.23935936304616Q727.016932068947 459.23935936304616 733.6637575999291 458.2472958509593Q740.3105831309113 457.23539106863063 744.874075286511 454.636184666963Q749.4375674421107 452.0171369950536 751.7986786008775 447.45364483945394Q754.1597897596442 442.89015268385424 754.1597897596442 435.66793031586167L754.1597897596442 435.66793031586167Q754.1597897596442 430.3107873505925 751.9177262223279 426.52110473442053Q749.6558214147698 422.73142211824864 746.084392771257 420.3107871487566Q742.5129641277442 417.89015217926465 738.0883608638367 416.77904104572735Q733.6637575999291 415.66792991219 729.2986781467469 415.66792991219L729.2986781467469 415.66792991219Q728.0883606620008 415.66792991219 726.4018526914531 415.7671362633987Q724.7351859911471 415.8861838848491 723.008995480116 416.02507277654126Q721.3026462393266 416.16396166823347 719.6955033497458 416.3822156408926Q718.088360460165 416.6004696135517 717.0169318671112 416.8187235862108L717.0169318671112 416.8187235862108ZM803.4455050401209 398.1679295589773L803.4455050401209 487.01713770147904Q803.4455050401209 491.7393600190126 803.9812193366478 494.9139632576907Q804.5169336331747 498.0885664963687 805.5486796857451 500.05285225030076Q806.5804257383155 502.0171380042328 808.128044817171 502.8504713543858Q809.6558226257848 503.66396343429705 811.6597909202003 503.66396343429705L811.6597909202003 503.66396343429705Q813.2272512692977 503.66396343429705 814.5169338350106 503.4853920021214Q815.8066164007236 503.3068205699458 816.7391561020852 503.02904278656143L816.7391561020852 503.02904278656143Q817.810584695139 502.73142373293535 818.6637593155338 502.3742808685841L818.6637593155338 502.3742808685841L823.5843943354847 511.02507469398176Q823.0089974984743 511.60047153099214 821.7589974732449 512.2750747192113Q820.5089974480154 512.9496779074303 818.802648207226 513.6044398254077Q817.0962989664365 514.2393604731433 814.9137592398454 514.6758684184615Q812.7312195132541 515.092535093538 810.2312194627953 515.092535093538L810.2312194627953 515.092535093538Q803.8026479044722 515.092535093538 799.7947113156412 512.7314239347712Q795.8066159970518 510.39015404624615 793.5843937299773 506.3028523764482Q791.3820127331444 502.23539197689195 790.6280444639583 496.83856647113925Q789.8740761947722 491.46158223562827 789.8740761947722 485.3107884606896L789.8740761947722 485.3107884606896L789.8740761947722 413.8822155904336L788.4455047373672 399.5965010163824L803.4455050401209 398.1679295589773ZM883.4455066548076 495.4496775542176L883.4455066548076 435.3107874515104L897.0169355001563 433.8822159941053L897.0169355001563 513.882217608792L883.4455066548076 513.882217608792L883.4455066548076 502.23539197689195L879.0804272016253 509.87428101996096Q877.8105859061541 510.7472969105974 876.0447128546393 511.6599953417174Q874.2986810733665 512.592535043079 872.0963000765336 513.3465033122651Q869.874077809459 514.1004715814511 867.2351888673079 514.5965033374946Q864.5962999251567 515.092535093538 861.6597919293795 515.092535093538L861.6597919293795 515.092535093538Q855.9455060997591 515.092535093538 851.8383631597193 513.0290429883972Q847.7312202196796 510.9457096130148 845.0923312775285 507.2353920778098Q842.4534423353773 503.5250745426049 841.1637597696645 498.4258680904783Q839.8740772039514 493.3068203681099 839.8740772039514 487.3147567551051L839.8740772039514 487.3147567551051L839.8740772039514 435.3107874515104L853.4455060493001 433.8822159941053L853.4455060493001 487.3147567551051Q853.4455060493001 495.0330108791411 856.560585477253 499.3385665215982Q859.655823634964 503.66396343429705 866.3026491659461 503.66396343429705L866.3026491659461 503.66396343429705Q868.7232841354382 503.66396343429705 871.084395294205 502.8901538948693Q873.4455064529717 502.09650308519974 875.6677287200464 500.88618560045376Q877.8701097168793 499.6758681157078 879.8343954708113 498.2472966583026Q881.7986812247434 496.8187252008975 883.4455066548076 495.4496775542176L883.4455066548076 495.4496775542176ZM939.1597934936073 446.73935911075137L939.1597934936073 487.01713770147904Q939.1597934936073 491.7393600190126 939.6955077901341 494.9139632576907Q940.2312220866611 498.0885664963687 941.2629681392315 500.05285225030076Q942.2947141918019 502.0171380042328 943.8423332706574 502.8504713543858Q945.3701110792713 503.66396343429705 947.3740793736868 503.66396343429705L947.3740793736868 503.66396343429705Q948.941539722784 503.66396343429705 950.231222288497 503.4853920021214Q951.5209048542099 503.3068205699458 952.4534445555715 503.02904278656143L952.4534445555715 503.02904278656143Q953.5248731486254 502.73142373293535 954.3780477690202 502.3742808685841L954.3780477690202 502.3742808685841L959.2986827889711 511.02507469398176Q958.7232859519606 511.60047153099214 957.4732859267313 512.2750747192113Q956.2232859015018 512.9496779074303 954.5169366607123 513.6044398254077Q952.8105874199229 514.2393604731433 950.6280476933317 514.6758684184615Q948.4455079667405 515.092535093538 945.9455079162816 515.092535093538L945.9455079162816 515.092535093538Q939.5169363579585 515.092535093538 935.5089997691275 512.7314239347712Q931.5209044505382 510.39015404624615 929.2986821834636 506.3028523764482Q927.0963011866306 502.23539197689195 926.3423329174447 496.83856647113925Q925.5883646482587 491.46158223562827 925.5883646482587 485.3107884606896L925.5883646482587 485.3107884606896L925.5883646482587 446.73935911075137L914.8740787177203 446.73935911075137L914.8740787177203 435.3107874515104L925.5883646482587 435.3107874515104L925.5883646482587 420.3901522297236L938.802650629256 412.4536441330285L938.802650629256 435.3107874515104L963.088365405143 435.3107874515104L961.6597939477379 446.73935911075137L939.1597934936073 446.73935911075137ZM1011.2232870115988 515.092535093538L1011.2232870115988 515.092535093538Q1003.3066201851454 515.092535093538 996.759001005372 511.9972969358269Q990.2312230958403 508.8822175078741 985.5090007783067 503.4258681913962Q980.8066197310148 497.94967760467654 978.1875720591055 490.4893599937832Q975.5883656574379 483.02904238288977 975.5883656574379 474.3782485574921L975.5883656574379 474.3782485574921Q975.5883656574379 465.74729600233616 978.0883657078969 458.3465022021679Q980.5883657583558 450.94570840199975 985.2312229949224 445.56872416648883Q989.874080231489 440.17189866073613 996.4812232219876 437.1361843137503Q1003.0883662124864 434.1004699667644 1011.2232870115988 434.1004699667644L1011.2232870115988 434.1004699667644Q1019.159795108294 434.1004699667644 1025.7272555583093 437.1361843137503Q1032.2947160083245 440.17189866073613 1037.016938325858 445.56872416648883Q1041.7391606433916 450.94570840199975 1044.3780495855426 458.3465022021679Q1047.0169385276938 465.74729600233616 1047.0169385276938 474.3782485574921L1047.0169385276938 474.3782485574921Q1047.0169385276938 483.02904238288977 1044.4772559367514 490.4893599937832Q1041.937573345809 497.94967760467654 1037.2947161092422 503.4258681913962Q1032.6518588726756 508.8822175078741 1026.0248746119353 511.9972969358269Q1019.3780490809531 515.092535093538 1011.2232870115988 515.092535093538ZM1033.4455096823451 476.3028517709406L1033.4455096823451 476.3028517709406Q1033.4455096823451 470.5290421305949 1032.1955096571157 464.9536451926666Q1030.9455096318861 459.3782482547383 1028.2272556087682 454.99332753131426Q1025.5090015856501 450.5885655376485 1021.2232872134348 447.89015278477217Q1016.9375728412193 445.17189876165406 1010.9455092282145 445.17189876165406L1010.9455092282145 445.17189876165406Q1005.231223398594 445.17189876165406 1001.0843979180709 447.53300992042085Q996.9375724375477 449.8742798089459 994.2986834953965 453.80285131681Q991.6597945532454 457.7314228246741 990.4097945280159 462.731422925592Q989.1597945027864 467.7314230265099 989.1597945027864 473.0290421810539L989.1597945027864 473.0290421810539Q989.1597945027864 478.8028518213996 990.4097945280159 484.3782487593279Q991.6597945532454 489.9536456972562 994.33836603588 494.3187251504385Q997.0169375185146 498.6639633333791 1001.2629693502465 501.3425348160137Q1005.5090011819784 504.0211062986483 1011.520906065225 504.0211062986483L1011.520906065225 504.0211062986483Q1017.1558268138784 504.0211062986483 1021.3026522944017 501.6599951398815Q1025.4494777749248 499.31872525135645 1028.167731798043 495.40999501373415Q1030.8661445509192 491.5211060463535 1032.1558271166323 486.5211059454356Q1033.4455096823451 481.5211058445177 1033.4455096823451 476.3028517709406ZM1082.0169392341193 453.6044386143926L1082.0169392341193 513.882217608792L1068.4455103887706 513.882217608792L1068.4455103887706 435.3107874515104L1082.0169392341193 433.8822159941053L1082.0169392341193 446.9576130834105L1086.3820186873015 439.3187240403414Q1087.6518599827727 438.44570814970496 1089.6558282771882 437.53300971858505Q1091.6597965716037 436.60047001722336 1094.1201140815792 435.8465017480373Q1096.5804315915548 435.0925334788513 1099.4375745063649 434.59650172280783Q1102.2947174211754 434.1004699667644 1105.2312254169524 434.1004699667644L1105.2312254169524 434.1004699667644Q1110.8661461656059 434.1004699667644 1114.7748764032283 435.9258668290043Q1118.6637653706089 437.7314224210024 1121.084400340101 441.16396217282306Q1123.5248765798347 444.5965019246437 1124.556622632405 449.4576131338694Q1125.5883686849754 454.3187243430952 1125.5883686849754 460.3107879561L1125.5883686849754 460.3107879561L1125.5883686849754 513.882217608792L1112.0169398396267 513.882217608792L1112.0169398396267 460.3107879561Q1112.0169398396267 456.4615815292029 1111.4812255430998 453.66396242511786Q1110.945511246573 450.88618459127457 1109.6161461403765 449.0607877290347Q1108.3066223044218 447.2353908667948 1106.0844000373472 446.38221624640005Q1103.8820190405143 445.5290416260053 1100.5883681803857 445.5290416260053L1100.5883681803857 445.5290416260053Q1098.1677332108939 445.5290416260053 1095.6677331604349 446.2830098951914Q1093.1677331099759 447.01713689413566 1090.7669394107256 448.20761310864Q1088.3661457114754 449.3782480529025 1086.124082174159 450.8068195103076Q1083.8820186368425 452.2353909677127 1082.0169392341193 453.6044386143926L1082.0169392341193 453.6044386143926ZM1167.7312266784263 437.0965017732668L1167.7312266784263 513.882217608792L1154.1597978330778 513.882217608792L1154.1597978330778 438.5250732306719L1167.7312266784263 437.0965017732668ZM1153.7232898877596 421.0250728774592L1153.7232898877596 406.73935830340804L1168.1677346237448 406.73935830340804L1168.1677346237448 421.0250728774592L1153.7232898877596 421.0250728774592ZM1240.5883710060875 495.4496775542176L1240.5883710060875 435.3107874515104L1254.1597998514362 433.8822159941053L1254.1597998514362 513.882217608792L1240.5883710060875 513.882217608792L1240.5883710060875 502.23539197689195L1236.2232915529053 509.87428101996096Q1234.953450257434 510.7472969105974 1233.1875772059193 511.6599953417174Q1231.4415454246464 512.592535043079 1229.2391644278136 513.3465033122651Q1227.0169421607388 514.1004715814511 1224.3780532185876 514.5965033374946Q1221.7391642764367 515.092535093538 1218.8026562806594 515.092535093538L1218.8026562806594 515.092535093538Q1213.0883704510388 515.092535093538 1208.9812275109994 513.0290429883972Q1204.8740845709594 510.9457096130148 1202.2351956288085 507.2353920778098Q1199.5963066866573 503.5250745426049 1198.3066241209444 498.4258680904783Q1197.0169415552314 493.3068203681099 1197.0169415552314 487.3147567551051L1197.0169415552314 487.3147567551051L1197.0169415552314 435.3107874515104L1210.58837040058 433.8822159941053L1210.58837040058 487.3147567551051Q1210.58837040058 495.0330108791411 1213.703449828533 499.3385665215982Q1216.798687986244 503.66396343429705 1223.4455135172261 503.66396343429705L1223.4455135172261 503.66396343429705Q1225.866148486718 503.66396343429705 1228.227259645485 502.8901538948693Q1230.5883708042516 502.09650308519974 1232.8105930713264 500.88618560045376Q1235.012974068159 499.6758681157078 1236.9772598220911 498.2472966583026Q1238.9415455760231 496.8187252008975 1240.5883710060875 495.4496775542176L1240.5883710060875 495.4496775542176ZM1296.302657844887 453.6044386143926L1296.302657844887 513.882217608792L1282.7312289995384 513.882217608792L1282.7312289995384 435.3107874515104L1296.302657844887 433.8822159941053L1296.302657844887 446.9576130834105L1300.6677372980694 439.3187240403414Q1301.9375785935408 438.44570814970496 1303.882023077231 437.53300971858505Q1305.8066262906796 436.60047001722336 1308.2272612601716 435.8465017480373Q1310.6677374999053 435.0925334788513 1313.4455153337485 434.59650172280783Q1316.223293167592 434.1004699667644 1319.1598011633694 434.1004699667644L1319.1598011633694 434.1004699667644Q1327.1558330707894 434.1004699667644 1332.1558331717072 437.989358934145Q1337.1558332726252 441.8782479015256 1338.6637698109973 447.94967659549735L1338.6637698109973 447.94967659549735L1344.080436586992 439.59650182372576Q1346.5804366374507 437.59253352931023 1351.163770063292 435.8465017480373Q1355.7272622188918 434.1004699667644 1361.6598020211713 434.1004699667644L1361.6598020211713 434.1004699667644Q1367.0963100674076 434.1004699667644 1370.9455164943047 435.9258668290043Q1374.7947229212018 437.7314224210024 1377.2748817014192 441.16396217282306Q1379.7351992113945 444.5965019246437 1380.8661516151735 449.4576131338694Q1382.0169452891944 454.3187243430952 1382.0169452891944 460.3107879561L1382.0169452891944 460.3107879561L1382.0169452891944 513.882217608792L1368.4455164438457 513.882217608792L1368.4455164438457 461.0250736848026Q1368.4455164438457 457.17586725790545 1367.909802147319 454.2790418026117Q1367.3740878507917 451.382216347318 1366.0447227445954 449.41793059338596Q1364.7351989086408 447.45364483945394 1362.512976641566 446.4814225976088Q1360.3105956447332 445.5290416260053 1357.016944784605 445.5290416260053L1357.016944784605 445.5290416260053Q1354.953452679464 445.5290416260053 1352.6915478719059 446.2433273547079Q1350.4494843345897 446.9576130834105 1348.1677382567898 448.128248027673Q1345.866150908748 449.31872424217727 1343.7034524523986 450.84650205079106Q1341.5209127258074 452.3742798594049 1339.596309512359 453.96158147874394L1339.596309512359 453.96158147874394Q1339.7947222147766 456.02507358388465 1339.8344047552598 457.4139625008063Q1339.8740872957435 458.80285141772794 1339.8740872957435 461.0250736848026L1339.8740872957435 461.0250736848026L1339.8740872957435 513.882217608792L1326.3026584503948 513.882217608792L1326.3026584503948 461.0250736848026Q1326.3026584503948 453.30681956076654 1323.7232933189687 449.41793059338596Q1321.1637694577846 445.5290416260053 1314.5169439268025 445.5290416260053L1314.5169439268025 445.5290416260053Q1312.3740867406948 445.5290416260053 1309.9534517712027 446.16396227374094Q1307.5129755314692 446.81872419171833 1305.1320231024606 447.94967659549735Q1302.7312294032104 449.10047026951815 1300.4494833254103 450.56872426740676Q1298.1677372476106 452.0171369950536 1296.302657844887 453.6044386143926L1296.302657844887 453.6044386143926ZM1465.727264439086 405.3107868460029L1488.802661730227 478.167931173664L1495.092344396858 503.88221740695616L1498.5248841486784 481.46158203379247L1522.096313195863 406.73935830340804L1535.5883769602447 406.73935830340804L1505.6677414357043 501.0250744921459L1503.8026620329808 515.3107890661971L1486.2232965988012 513.882217608792L1451.7986927293862 406.73935830340804L1465.727264439086 405.3107868460029ZM1575.5090126866212 515.092535093538L1575.5090126866212 515.092535093538Q1567.5923458601678 515.092535093538 1561.0447266803942 511.9972969358269Q1554.5169487708624 508.8822175078741 1549.7947264533288 503.4258681913962Q1545.0923454060373 497.94967760467654 1542.4732977341278 490.4893599937832Q1539.8740913324602 483.02904238288977 1539.8740913324602 474.3782485574921L1539.8740913324602 474.3782485574921Q1539.8740913324602 465.74729600233616 1542.374091382919 458.3465022021679Q1544.874091433378 450.94570840199975 1549.5169486699444 445.56872416648883Q1554.1598059065113 440.17189866073613 1560.76694889701 437.1361843137503Q1567.3740918875087 434.1004699667644 1575.5090126866212 434.1004699667644L1575.5090126866212 434.1004699667644Q1583.4455207833164 434.1004699667644 1590.0129812333314 437.1361843137503Q1596.5804416833469 440.17189866073613 1601.3026640008804 445.56872416648883Q1606.024886318414 450.94570840199975 1608.663775260565 458.3465022021679Q1611.302664202716 465.74729600233616 1611.302664202716 474.3782485574921L1611.302664202716 474.3782485574921Q1611.302664202716 483.02904238288977 1608.7629816117735 490.4893599937832Q1606.223299020831 497.94967760467654 1601.5804417842646 503.4258681913962Q1596.9375845476982 508.8822175078741 1590.3106002869574 511.9972969358269Q1583.6637747559755 515.092535093538 1575.5090126866212 515.092535093538ZM1597.7312353573673 476.3028517709406L1597.7312353573673 476.3028517709406Q1597.7312353573673 470.5290421305949 1596.4812353321379 464.9536451926666Q1595.2312353069085 459.3782482547383 1592.5129812837906 454.99332753131426Q1589.7947272606723 450.5885655376485 1585.509012888457 447.89015278477217Q1581.2232985162416 445.17189876165406 1575.231234903237 445.17189876165406L1575.231234903237 445.17189876165406Q1569.5169490736164 445.17189876165406 1565.370123593093 447.53300992042085Q1561.22329811257 449.8742798089459 1558.5844091704187 453.80285131681Q1555.9455202282677 457.7314228246741 1554.6955202030383 462.731422925592Q1553.445520177809 467.7314230265099 1553.445520177809 473.0290421810539L1553.445520177809 473.0290421810539Q1553.445520177809 478.8028518213996 1554.6955202030383 484.3782487593279Q1555.9455202282677 489.9536456972562 1558.6240917109023 494.3187251504385Q1561.3026631935368 498.6639633333791 1565.5486950252687 501.3425348160137Q1569.7947268570008 504.0211062986483 1575.8066317402472 504.0211062986483L1575.8066317402472 504.0211062986483Q1581.4415524889007 504.0211062986483 1585.5883779694238 501.6599951398815Q1589.735203449947 499.31872525135645 1592.4534574730653 495.40999501373415Q1595.1518702259416 491.5211060463535 1596.4415527916547 486.5211059454356Q1597.7312353573673 481.5211058445177 1597.7312353573673 476.3028517709406ZM1683.1677450182904 443.0885653862716L1676.0844115419898 451.16396237465887Q1673.3066337081466 448.66396232419993 1669.4772685514915 447.0965019751026Q1665.6677446650776 445.5290416260053 1661.5804429952798 445.5290416260053L1661.5804429952798 445.5290416260053Q1655.5883793822748 445.5290416260053 1651.3820300910263 447.77110516332175Q1647.1558395295363 450.03300997087985 1644.5566331278685 453.882216397777Q1641.9375854559592 457.7314228246741 1640.7272679712135 462.85047054704245Q1639.5169504864673 467.949676999169 1639.5169504864673 473.6044390180643L1639.5169504864673 473.6044390180643Q1639.5169504864673 479.45761373937694 1640.6280616200045 484.7750741641627Q1641.7391727535417 490.0925345889484 1644.3780616956928 494.15999498850465Q1647.016950637844 498.2472966583026 1651.401871361268 500.62824908731113Q1655.8066333549339 503.02904278656143 1662.3740938049489 503.02904278656143L1662.3740938049489 503.02904278656143Q1667.8701256619106 503.02904278656143 1671.699490818566 501.7393602208485Q1675.5090147049796 500.44967765513553 1677.592348080362 499.0211061977304L1677.592348080362 499.0211061977304L1682.7312370729721 509.1004714805332Q1678.723300484141 511.81872550365125 1673.4058400593553 513.4457096634737Q1668.0883796345695 515.092535093538 1661.3820302928623 515.092535093538L1661.3820302928623 515.092535093538Q1652.4534586840803 515.092535093538 1645.7272680721312 511.5607889905087Q1639.0209187304238 508.02904288747936 1634.5566329260328 502.1361856256832Q1630.0923471216418 496.2433283638871 1627.8304423140837 488.5647567803346Q1625.5883787767673 480.8861851967821 1625.5883787767673 472.67189931670265L1625.5883787767673 472.67189931670265Q1625.5883787767673 465.23142297605096 1627.7709185033584 458.267137121201Q1629.9534582299495 451.30285126635107 1634.4177440343406 445.9457083010818Q1638.8820298387316 440.58856533581263 1645.6875855316478 437.3544382864094Q1652.5129824948056 434.1004699667644 1661.7391731572136 434.1004699667644L1661.7391731572136 434.1004699667644Q1668.3066336072286 434.1004699667644 1673.4852051403223 436.1242795314217Q1678.663776673416 438.16793036632066 1683.1677450182904 443.0885653862716L1683.1677450182904 443.0885653862716ZM1754.1598099432279 501.0250744921459L1755.5883814006331 513.882217608792L1740.5883810978792 513.882217608792L1740.5883810978792 502.31475705785886L1733.882031756172 510.3107889652792Q1732.6518730011842 511.2433286666409 1731.0844126520872 512.0965032870356Q1729.5169523029897 512.9496779074303 1727.909809413409 513.6242810956494Q1726.3026665238283 514.3187255541102 1724.6955236342471 514.6957096887032Q1723.088380744667 515.092535093538 1721.7391743682285 515.092535093538L1721.7391743682285 515.092535093538Q1716.3820314029592 515.092535093538 1711.4812376532502 513.425868393232Q1706.5804439035408 511.7393604226843 1702.9098089088193 508.4853921030393Q1699.2391739140978 505.23142378339435 1697.0566341875067 500.409995114652Q1694.8740944609156 495.58856644590975 1694.8740944609156 489.3187250495206L1694.8740944609156 489.3187250495206Q1694.8740944609156 482.67189951853845 1697.5526659435502 477.7711057688292Q1700.2312374261849 472.89015328936176 1704.4177454471915 469.63618496971674Q1708.5844121979565 466.38221665007177 1713.7233011905664 464.775073760491Q1718.8820314534184 463.16793087091025 1723.8026664733695 463.16793087091025L1723.8026664733695 463.16793087091025Q1727.8701268729253 463.16793087091025 1730.9852063008782 463.6044388162285Q1734.0804444585895 464.021105491305 1736.223301644697 464.59650232831535L1736.223301644697 464.59650232831535Q1738.7233016951561 465.23142297605096 1740.5883810978792 466.02507378572045L1740.5883810978792 466.02507378572045L1740.5883810978792 463.5250737352615Q1740.5883810978792 459.3187244440131 1740.0923493418356 455.9457085029177Q1739.5963175857926 452.592533832064 1738.0486985069367 450.2711052137807Q1736.520920698323 447.94967659549735 1733.6240952430292 446.73935911075137Q1730.7272697877358 445.5290416260053 1725.945523659477 445.5290416260053L1725.945523659477 445.5290416260053Q1722.0963172325798 445.5290416260053 1718.5248885890671 446.0647559225323Q1714.9534599455544 446.6004702190592 1712.1558408414692 447.2353908667948L1712.1558408414692 447.2353908667948Q1708.8820312515825 448.0290416764643 1706.0844121474975 448.88221629685904L1706.0844121474975 448.88221629685904L1700.9455231548875 439.3187240403414Q1704.080443853082 437.8901525829363 1708.088380441913 436.7393589089155L1708.088380441913 436.7393589089155Q1711.5209201937334 435.74729539682863 1716.2233012410254 434.91396204667564Q1720.945523558559 434.1004699667644 1726.6598093881796 434.1004699667644L1726.6598093881796 434.1004699667644Q1734.874095268259 434.1004699667644 1740.2312382335283 436.3028509635973Q1745.5883811987976 438.5250732306719 1748.6637780862668 442.5330098195029Q1751.739174973736 446.52110513809225 1752.9494924584822 452.136184616504Q1754.1598099432279 457.7314228246741 1754.1598099432279 464.59650232831535L1754.1598099432279 464.59650232831535L1754.1598099432279 501.0250744921459ZM1740.5883810978792 494.3187251504385L1740.5883810978792 475.8068200148972Q1738.584412803464 475.5290422315129 1736.3026667256638 475.23142317788677L1736.3026667256638 475.23142317788677Q1734.3780635122155 475.03301047546944 1731.8780634617567 474.8147565028103Q1729.3780634112975 474.5965025301512 1726.6598093881796 474.5965025301512L1726.6598093881796 474.5965025301512Q1722.6518727993482 474.5965025301512 1719.3383806689783 475.3901533398207Q1716.024888538608 476.16396287924846 1713.5844122988744 477.9099946605214Q1711.1637773293824 479.67586771203605 1709.7947296827024 482.45364554587934Q1708.4455233062642 485.2314233797226 1708.4455233062642 489.2393599685537L1708.4455233062642 489.2393599685537Q1708.4455233062642 492.4536457477152 1709.516951899318 495.0925346898663Q1710.5883804923722 497.7314236320174 1712.4534598950952 499.6758681157078Q1714.2986980275766 501.60047132915633 1716.8383806185195 502.63221738172666Q1719.378063209462 503.66396343429705 1722.2947299349973 503.66396343429705L1722.2947299349973 503.66396343429705Q1723.6637775816769 503.66396343429705 1725.1915553902907 503.2671380294623Q1726.7391744691465 502.8901538948693 1728.2669522777603 502.23539197689195Q1729.794730086374 501.60047132915633 1731.3423491652295 500.7472967087616Q1732.8701269738433 499.8742808181251 1734.2391746205233 499.0211061977304L1734.2391746205233 499.0211061977304Q1737.4534603996851 496.95761409258967 1740.5883810978792 494.3187251504385L1740.5883810978792 494.3187251504385ZM1792.7312392931665 398.1679295589773L1792.7312392931665 487.01713770147904Q1792.7312392931665 491.7393600190126 1793.2669535896932 494.9139632576907Q1793.80266788622 498.0885664963687 1794.8344139387902 500.05285225030076Q1795.866159991361 502.0171380042328 1797.4137790702164 502.8504713543858Q1798.9415568788302 503.66396343429705 1800.9455251732459 503.66396343429705L1800.9455251732459 503.66396343429705Q1802.512985522343 503.66396343429705 1803.802668088056 503.4853920021214Q1805.092350653769 503.3068205699458 1806.0248903551303 503.02904278656143L1806.0248903551303 503.02904278656143Q1807.0963189481843 502.73142373293535 1807.949493568579 502.3742808685841L1807.949493568579 502.3742808685841L1812.8701285885302 511.02507469398176Q1812.2947317515197 511.60047153099214 1811.0447317262904 512.2750747192113Q1809.794731701061 512.9496779074303 1808.0883824602713 513.6044398254077Q1806.382033219482 514.2393604731433 1804.1994934928905 514.6758684184615Q1802.0169537662994 515.092535093538 1799.5169537158406 515.092535093538L1799.5169537158406 515.092535093538Q1793.0883821575178 515.092535093538 1789.0804455686864 512.7314239347712Q1785.092350250097 510.39015404624615 1782.8701279830227 506.3028523764482Q1780.6677469861895 502.23539197689195 1779.9137787170037 496.83856647113925Q1779.1598104478178 491.46158223562827 1779.1598104478178 485.3107884606896L1779.1598104478178 485.3107884606896L1779.1598104478178 413.8822155904336L1777.7312389904125 399.5965010163824L1792.7312392931665 398.1679295589773ZM1842.7312403023454 437.0965017732668L1842.7312403023454 513.882217608792L1829.1598114569972 513.882217608792L1829.1598114569972 438.5250732306719L1842.7312403023454 437.0965017732668ZM1828.7233035116785 421.0250728774592L1828.7233035116785 406.73935830340804L1843.1677482476637 406.73935830340804L1843.1677482476637 421.0250728774592L1828.7233035116785 421.0250728774592ZM1861.3026692486121 446.73935911075137L1861.3026692486121 435.3107874515104L1872.0169551791503 435.3107874515104L1872.0169551791503 424.2393586566207Q1872.0169551791503 418.16792996264894 1873.346320285347 413.3861838343902Q1874.6558441213017 408.60443770613136 1877.5129870361118 405.27110430551943Q1880.3701299509219 401.9576121751492 1884.834415755313 400.1718978533928Q1889.2987015597039 398.3861835316364 1895.588384226335 398.3861835316364L1895.588384226335 398.3861835316364Q1898.8026700054963 398.3861835316364 1901.481241488131 398.9218978281633Q1904.1598129707656 399.45761212469023 1906.401876508082 400.31078674508495Q1908.66378131564 401.1639613654797 1910.5487019886052 402.3147550395005Q1912.453463931812 403.4457074432795 1913.941559199942 404.6758661982673L1913.941559199942 404.6758661982673L1907.8701305059706 413.0885647807641Q1906.38203523784 412.01713618771026 1903.7233050254474 410.92586632441464Q1901.0844160832964 409.81475519087735 1897.870130304135 409.81475519087735L1897.870130304135 409.81475519087735Q1891.7391777994378 409.81475519087735 1888.4852094797927 413.2671362129397Q1885.2312411601476 416.73935850524384 1885.2312411601476 424.9536443853233L1885.2312411601476 424.9536443853233L1885.2312411601476 435.3107874515104L1905.9455272925222 435.3107874515104L1904.516955835117 446.73935911075137L1885.588384024499 446.73935911075137L1885.588384024499 513.882217608792L1872.0169551791503 513.882217608792L1872.0169551791503 446.73935911075137L1861.3026692486121 446.73935911075137ZM1954.159813979945 504.45761424396653L1957.87013151515 487.8901535921155L1977.0963223793935 435.3107874515104L1989.9534654960396 434.1004699667644L1960.3701315656087 515.092535093538Q1958.167750568776 521.1044399767845 1955.5487028968666 527.0171385088224Q1952.949496495199 532.9496783111019 1949.6558456350701 537.6322180881521Q1946.3820360451834 542.3147578652022 1942.4137819968357 545.2314245907377Q1938.4455279484885 548.1679325865149 1933.5844167392627 548.1679325865149L1933.5844167392627 548.1679325865149Q1929.9534642850247 548.1679325865149 1926.4415594522372 546.6996785886263Q1922.9494958896914 545.2314245907377 1920.012987893914 542.6719007295535L1920.012987893914 542.6719007295535L1925.231241967491 535.0330116864844Q1926.4415594522372 535.8861863068792 1928.0090198013343 536.6004720355818Q1929.5963214206733 537.3147577642843 1931.302670661463 537.3147577642843L1931.302670661463 537.3147577642843Q1933.6637818202296 537.3147577642843 1935.8661628170628 535.4893609020444Q1938.0883850841371 533.6639640398046 1940.132035919036 530.8068211249943Q1942.1558454836934 527.9496782101841 1943.9018772649663 524.3782495666712Q1945.6677503164808 520.8068209231585 1947.096321773886 517.2353922796457L1947.096321773886 517.2353922796457L1917.294733870796 435.3107874515104L1930.8661627161448 434.1004699667644L1950.4494964447401 487.8901535921155L1954.159813979945 504.45761424396653Z " fill="#38ee05" transform="matrix(0.43970880892405173,0,0,0.4397088089240518,0,91.94388380289159)"/></g></svg>